# xmcd
#
# Track frame offsets:
#	150
#	18712
#	34495
#	53895
#	70945
#	88190
#	104762
#	117875
#	133412
#	157195
#
# Disc length: 2316 seconds
#
# Revision: 0
# Processed by: cddbd v1.5.2PL0 Copyright (c) Steve Scherf et al.
# Submitted via: EasyCDDAExtractor 12.0.0.1
#
DISCID=9b090a0a
DTITLE=Yolandita Monge - Luz De Luna
DYEAR=1985
DGENRE=Latin
TTITLE0=Te Veo Pasar (Should Have Known Better)
TTITLE1=Por Ti, Por El
TTITLE2=El Amor
TTITLE3=America
TTITLE4=Señor... Del Pasado
TTITLE5=Ya Nos Conocemos
TTITLE6=Estoy Enamorandome
TTITLE7=Luz De Luna
TTITLE8=El Poder Del Amor (The Power Of Love)
TTITLE9=Cansada
EXTD=
EXTT0=
EXTT1=
EXTT2=
EXTT3=
EXTT4=
EXTT5=
EXTT6=
EXTT7=
EXTT8=
EXTT9=
PLAYORDER=
